<?xml version="1.0" encoding="UTF-8" standalone="no"?>
<svg
   xmlns:dc="http://purl.org/dc/elements/1.1/"
   xmlns:cc="http://creativecommons.org/ns#"
   xmlns:rdf="http://www.w3.org/1999/02/22-rdf-syntax-ns#"
   xmlns:svg="http://www.w3.org/2000/svg"
   xmlns="http://www.w3.org/2000/svg"
   version="1.0"
   id="svg2"
   height="1012.6808"
   width="4162.1206">
  <title
     id="title2835">OFAI Logo</title>
  <defs
     id="defs4" />
  <metadata
     id="metadata7">
    <rdf:RDF>
      <cc:Work
         rdf:about="">
        <dc:format>image/svg+xml</dc:format>
        <dc:type
           rdf:resource="http://purl.org/dc/dcmitype/StillImage" />
        <dc:title>OFAI Logo</dc:title>
        <dc:creator>
          <cc:Agent>
            <dc:title>Stefan Rank, Gregor Sieber</dc:title>
          </cc:Agent>
        </dc:creator>
        <dc:rights>
          <cc:Agent>
            <dc:title>OFAI</dc:title>
          </cc:Agent>
        </dc:rights>
        <dc:contributor>
          <cc:Agent>
            <dc:title />
          </cc:Agent>
        </dc:contributor>
        <dc:description />
      </cc:Work>
    </rdf:RDF>
  </metadata>
  <g
     transform="translate(-3.799518,-37.026028)"
     id="layer1">
    <path
       id="path2381"
       d="m 60.667303,1046.8804 c -11.44864,-3.8518 -18.5143,-8.3178 -27.81549,-17.581 -8.41923,-8.3848 -13.54514,-16.5113 -16.7152,-26.4999 -7.9114696,-24.92836 -1.08212,-52.37257 17.30655,-69.54754 15.5252,-14.50049 31.57145,-20.2649 53.38466,-19.17777 18.968947,0.94538 33.420597,7.61934 46.781947,21.6045 12.83683,13.43616 17.94108,26.82376 17.9656,47.12082 0.0119,9.85204 -0.37118,12.64641 -2.67328,19.49999 -4.09274,12.1845 -8.51675,19.243 -17.35047,27.6826 -9.07782,8.6729 -17.81167,13.9184 -28.91972,17.3691 -6.623861,2.0576 -9.722711,2.408 -20.784487,2.3498 -11.42722,-0.06 -13.98966,-0.4014 -21.18011,-2.8206 z m 35.748606,-13.6925 c 9.060011,-2.6881 15.077131,-6.3285 22.745671,-13.7614 11.76987,-11.4082 17.1803,-25.72513 15.88861,-42.04388 -0.77427,-9.78187 -3.28907,-16.79123 -9.17863,-25.58311 -16.03106,-23.93102 -49.344527,-30.42006 -73.156147,-14.2499 -18.20863,12.36524 -27.13056,35.97744 -21.43651,56.73244 3.04281,11.09115 7.36303,18.64885 14.36679,25.13315 7.77842,7.2014 12.74113,10.3278 20.70172,13.0416 8.15479,2.7801 22.02596,3.1173 30.068496,0.7311 z M 396.34741,981.29951 v -65.5 h 34.5 34.5 v 7.5 7.5 h -26.5 -26.5 v 18.5 18.5 h 26.5 26.5 v 7.5 7.5 h -26.5 -26.5 v 31.99999 31.9999 h -8 -8 z m 286,64.62579 c 0,-0.4807 2.63797,-6.8932 5.86215,-14.25 3.22418,-7.3566 8.01317,-18.3258 10.64221,-24.3758 39.06983,-89.9084 41.68064,-95.72209 42.56774,-94.789 0.41257,0.43395 4.21743,8.88901 8.45524,18.78901 4.23781,9.9 11.65581,27 16.48444,38 4.82864,11 11.7309,26.75 15.33838,34.99999 3.60747,8.25 9.27947,21.0252 12.60444,28.3895 3.32497,7.3642 6.0454,13.5517 6.0454,13.75 0,0.1982 -3.94855,0.3604 -8.77455,0.3604 h -8.77454 l -8.45091,-20 -8.45091,-19.9999 h -25.08111 -25.08111 l -8.41179,19.9999 -8.41179,20 h -8.28165 c -4.5549,0 -8.28164,-0.3933 -8.28164,-0.8741 z m 78,-53.69658 c 0,-0.31394 -3.98134,-9.87644 -8.84742,-21.25 -4.86608,-11.37357 -9.15167,-21.53112 -9.52354,-22.57234 -0.37186,-1.04122 -0.83243,-1.71622 -1.02348,-1.5 -0.59351,0.67169 -19.60556,44.53644 -19.60556,45.23408 0,0.36248 8.775,0.65905 19.5,0.65905 10.725,0 19.5,-0.25686 19.5,-0.57079 z m 271.99999,-10.92921 v -65.5 h 8 8 v 65.5 65.49989 h -8 -8 z M 354.84741,852.73307 C 327.47368,850.81118 299.6981,844.87676 273.48476,835.34943 202.02098,809.37568 136.1706,760.46383 86.280803,696.29951 73.535753,679.90783 67.679683,671.13976 56.511233,651.72667 28.929023,603.78305 12.895823,553.05032 5.1789334,489.29951 c -2.05265,-16.95744 -1.75659,-69.02966 0.50319,-88.5 C 12.397933,342.93575 29.675693,288.04287 55.259953,243.28663 72.302413,213.47312 92.785989,185.84334 114.60294,163.24039 159.7422,116.47488 210.38582,83.141405 268.34741,62.046243 c 47.01759,-17.112085 87.13687,-24.26028 136,-24.231606 56.36754,0.03308 111.50051,11.496225 164.39891,34.181525 48.90565,20.973025 91.16577,50.324468 131.66937,91.449968 21.48489,21.81477 35.49101,38.96149 51.34112,62.85338 40.68716,61.33034 58.18345,109.76217 63.58108,176 0.58323,7.15721 0.98425,77.88206 0.99369,175.25 l 0.0158,163.25 h -42.49143 -42.49143 l -0.26677,-169.25 c -0.30413,-192.95081 0.6092,-173.68304 -9.70551,-204.75 -9.81511,-29.56219 -23.0193,-56.27776 -42.54072,-86.0711 -35.95409,-54.87267 -83.99051,-101.39218 -129.89959,-125.79757 -16.35112,-8.6923 -45.14156,-19.66092 -64.60455,-24.61312 -15.74904,-4.00721 -42.64005,-8.43427 -57.5,-9.46619 -25.59614,-1.77749 -58.69457,0.4514 -83.45742,5.62012 -18.19546,3.79791 -48.68823,13.64173 -60.26406,19.45472 -3.14682,1.58023 -6.26304,2.87314 -6.92494,2.87314 -1.70676,0 -30.88748,16.38466 -39.85358,22.37736 -21.56067,14.41056 -38.59331,28.34098 -53.5,43.75582 -28.93072,29.91693 -48.2097,57.17065 -64.50381,91.18578 -16.83808,35.15071 -25.739531,66.35142 -31.148937,109.18104 -1.78222,14.11092 -1.47757,51.60621 0.56874,70 2.435486,21.89198 8.406316,50.02667 14.325047,67.5 21.28006,62.82317 67.04846,123.59782 122.85873,163.14085 40.55007,28.73079 76.87658,43.76265 123.40023,51.06284 l 14.5,2.27524 298.25,0.27512 298.25,0.27511 V 541.81409 313.79951 h -66.84854 -66.84853 l -2.29558,-8.75 c -5.28722,-20.15319 -15.61177,-44.24303 -27.85804,-65 l -3.09742,-5.25 h 127.97406 127.97407 v 309.5 309.5 l -341.25002,-0.14707 c -187.6875,-0.0809 -346.2,-0.49461 -352.25,-0.91937 z m 63.5062,-526.78492 c 19.74613,2.14358 44.19676,11.66504 59.93521,23.33973 6.89115,5.11181 20.20961,19.28506 24.96162,26.56367 2.14325,3.28281 4.74203,7.09374 5.77506,8.46874 7.17193,9.54608 15.75536,39.27106 15.80968,54.75 l 0.0184,5.25 h -39.9121 -39.9121 l -0.70734,-4.25 c -2.9009,-17.43011 -17.51781,-31.29863 -35.08201,-33.28579 -10.97673,-1.24187 -25.9496,5.24625 -32.97429,14.28859 -3.61861,4.65795 -8.29503,14.53065 -8.99846,18.9972 l -0.66932,4.25 h -39.87219 -39.87219 v -2.82386 c 0,-5.46099 3.13274,-23.76324 5.42272,-31.68084 4.02202,-13.90617 9.21044,-25.96021 14.81716,-34.42407 16.22319,-24.49041 42.25961,-41.44777 73.76012,-48.03953 5.79024,-1.21166 30.68527,-2.14362 37.5,-1.40384 z M 937.84465,37.889768 c 0,0.47506 4.1625,1.10577 9.25,1.40159 15.04367,0.87472 32.93047,6.97723 49.38337,16.84832 10.85418,6.51207 25.91288,20.89234 32.94458,31.46033 10.2597,15.419312 16.8997,35.577162 18.0815,54.891922 l 0.6459,10.55679 -40.8581,-0.26135 -40.85813,-0.26134 -0.75391,-3.62958 c -2.40865,-11.59598 -12.34753,-24.53142 -22.7313,-29.58476 -5.038,-2.45179 -6.66424,-2.72337 -16.10391,-2.68939 -9.30447,0.0335 -11.14009,0.34494 -16.12172,2.73534 -10.94696,5.25282 -19.95318,17.21395 -21.44842,28.48557 l -0.68752,5.18282 h -40.37113 -40.3712 v -10.79682 c 0,-23.9257 9.2163,-47.983348 25.5,-66.563732 16.6119,-18.95484 48.21519,-35.09664 71.24999,-36.39185 5.0875,-0.28606 9.25,-0.9088 9.25,-1.38386 0,-0.47506 5.4,-0.86374 12,-0.86374 6.6,0 12,0.38868 12,0.86374 z"
       style="fill:#4d5ea5;fill-opacity:1" />
    <g
       id="text2846"
       style="font-style:normal;font-variant:normal;font-weight:bold;font-stretch:normal;font-size:291.06707764px;line-height:100%;font-family:'URW Gothic L';-inkscape-font-specification:'URW Gothic L Semi-Bold';text-align:start;writing-mode:lr-tb;text-anchor:start;fill:#4d5ea5;fill-opacity:1;stroke:none"
       transform="scale(0.893991,1.1185795)">
      <path
         id="path2869"
         style="line-height:100%;font-family:'URW Gothic L';-inkscape-font-specification:'URW Gothic L Semi-Bold';fill:#4d5ea5"
         d="m 1346.3458,290.52124 h 43.9511 l 23.8675,-55.59381 h 76.5507 l 22.9943,55.59381 h 43.9511 L 1467.4297,75.42267 h -31.4352 l -89.6487,215.09857 m 82.372,-93.7236 22.9943,-65.19902 22.9943,65.19902 h -45.9886" />
      <path
         id="path2871"
         style="line-height:100%;font-family:'URW Gothic L';-inkscape-font-specification:'URW Gothic L Semi-Bold';fill:#4d5ea5"
         d="m 1718.9799,129.27008 h -38.7119 v 75.96851 c 0,21.24787 -1.4554,31.72631 -6.1124,38.71192 -5.5303,9.31413 -16.2998,14.84442 -29.3978,14.84442 -9.8963,0 -17.464,-3.20175 -22.7032,-10.18735 -5.5303,-6.9856 -7.8589,-18.91938 -7.8589,-40.45832 v -78.87918 h -38.7119 V 215.717 c 0,27.36028 3.2018,41.33154 12.2248,54.72061 10.7695,15.42654 28.2336,23.8675 49.1904,23.8675 19.5015,0 31.7263,-4.94815 46.2796,-19.21042 v 15.42655 h 35.8013 V 129.27008" />
      <path
         id="path2873"
         style="line-height:100%;font-family:'URW Gothic L';-inkscape-font-specification:'URW Gothic L Semi-Bold';fill:#4d5ea5"
         d="m 1739.823,239.29343 c 1.7464,15.71761 4.366,23.86751 10.7695,32.59952 10.4784,13.9712 28.8157,22.41216 48.3171,22.41216 32.3085,0 57.6313,-24.1586 57.6313,-55.01168 0,-13.9712 -5.2392,-25.61391 -15.1355,-33.47271 -6.1124,-5.2392 -15.7176,-9.31415 -29.6888,-13.68015 -15.7176,-4.94814 -15.7176,-4.94814 -19.5015,-6.69454 -5.2392,-2.32854 -7.8588,-6.11242 -7.8588,-10.76949 0,-7.8588 6.4035,-13.68015 14.8444,-13.68015 8.1499,0 13.3891,4.36602 15.1355,12.80695 h 37.8387 c -0.5821,-13.68014 -3.7839,-21.83004 -11.6427,-30.56204 -10.1873,-11.35161 -25.3228,-17.75509 -41.3315,-17.75509 -29.9799,0 -53.5563,21.53899 -53.5563,49.19033 0,23.57641 12.807,36.96553 44.8243,47.735 14.8444,4.94814 16.0087,5.53028 20.0836,8.14988 4.6571,2.91067 7.2767,7.27668 7.2767,12.51589 0,9.02307 -7.5677,15.71762 -17.464,15.71762 -11.3516,0 -17.7551,-5.82136 -21.539,-19.5015 h -39.003" />
      <path
         id="path2875"
         style="line-height:100%;font-family:'URW Gothic L';-inkscape-font-specification:'URW Gothic L Semi-Bold';fill:#4d5ea5"
         d="m 1883.7421,290.52124 h 38.7119 V 164.4892 h 23.2854 V 129.27008 H 1922.454 V 75.42267 h -38.7119 v 53.84741 h -18.9194 v 35.21912 h 18.9194 v 126.03204" />
      <path
         id="path2877"
         style="line-height:100%;font-family:'URW Gothic L';-inkscape-font-specification:'URW Gothic L Semi-Bold';fill:#4d5ea5"
         d="m 1965.4682,290.52124 h 38.712 v -89.64866 c 0,-25.03174 11.3516,-37.54765 34.6369,-38.12979 v -37.25658 h -2.9106 c -16.5908,0 -24.7407,4.65709 -34.9281,19.50149 v -15.71762 h -35.5102 v 161.25116" />
      <path
         id="path2879"
         style="line-height:100%;font-family:'URW Gothic L';-inkscape-font-specification:'URW Gothic L Semi-Bold';fill:#4d5ea5"
         d="m 2058.7007,290.52124 h 38.7119 V 129.27008 h -38.7119 v 161.25116 m 0,-178.71519 h 38.7119 V 75.42267 h -38.7119 v 36.38338" />
      <path
         id="path2881"
         style="line-height:100%;font-family:'URW Gothic L';-inkscape-font-specification:'URW Gothic L Semi-Bold';fill:#4d5ea5"
         d="m 2291.9136,129.27008 h -35.5102 v 21.53896 c -13.3891,-17.75507 -29.3978,-25.32283 -52.6831,-25.32283 -47.735,0 -82.0809,35.8013 -82.0809,84.99158 0,48.60816 34.0549,83.82732 81.2077,83.82732 22.7032,0 38.1298,-7.27669 53.5563,-24.7407 v 20.95683 h 35.5102 V 129.27008 m -84.1184,31.72631 c 27.6514,0 47.4439,20.66579 47.4439,50.06354 0,11.64267 -4.657,25.03177 -11.6426,33.18164 -7.8588,9.31414 -20.3747,14.55336 -35.2191,14.55336 -28.2335,0 -47.7351,-19.21046 -47.7351,-47.44393 0,-29.39775 19.5016,-50.35461 47.1529,-50.35461" />
      <path
         id="path2883"
         style="line-height:100%;font-family:'URW Gothic L';-inkscape-font-specification:'URW Gothic L Semi-Bold';fill:#4d5ea5"
         d="m 2320.7748,290.52124 h 38.7119 v -75.96851 c 0,-21.53894 1.4553,-30.85312 6.4034,-38.71192 6.1125,-9.6052 16.2998,-14.84442 28.5246,-14.84442 9.8963,0 18.0462,3.49281 23.2854,10.18735 5.2392,6.9856 7.5677,18.91938 7.5677,40.45832 v 78.87918 h 38.712 v -86.44692 c 0,-28.81561 -2.9107,-42.78687 -11.6427,-55.30275 -10.4784,-15.13547 -27.9425,-23.28536 -50.3546,-23.28536 -18.3372,0 -31.1442,5.53029 -45.4065,19.21042 v -15.42655 h -35.8012 v 161.25116" />
      <path
         id="path2885"
         style="line-height:100%;font-family:'URW Gothic L';-inkscape-font-specification:'URW Gothic L Semi-Bold';fill:#4d5ea5"
         d="m 1364.1009,581.58832 h 39.8762 v -82.37199 l 56.467,82.37199 h 49.1903 l -58.2134,-79.46131 c 16.5908,-4.07494 24.7407,-7.85882 34.0549,-15.71763 14.5533,-12.51587 22.1211,-29.68886 22.1211,-50.93674 0,-21.83 -7.8588,-40.45833 -22.7033,-52.9742 -13.9712,-11.93374 -29.3978,-16.00869 -58.7955,-16.00869 h -61.9973 v 215.09857 m 39.8762,-112.35189 v -64.6169 h 17.7551 c 18.6283,0 28.8156,2.03748 35.2191,7.56775 6.9856,5.53027 10.4784,13.97123 10.4784,24.44963 0,22.70321 -13.098,32.59952 -43.9511,32.59952 h -19.5015" />
      <path
         id="path2887"
         style="line-height:100%;font-family:'URW Gothic L';-inkscape-font-specification:'URW Gothic L Semi-Bold';fill:#4d5ea5"
         d="m 1688.6634,518.13569 c 1.1643,-5.53026 1.4554,-9.02308 1.4554,-14.84442 0,-50.06348 -35.2192,-86.73799 -83.2452,-86.73799 -47.4439,0 -84.9916,37.54771 -84.9916,84.99159 0,47.15282 38.1298,83.82732 87.3201,83.82732 26.4871,0 47.1529,-9.60523 64.0348,-29.10671 6.1124,-7.56773 10.1873,-14.26229 12.8069,-22.41216 h -42.2047 c -9.8963,11.64267 -19.5015,16.00869 -35.5102,16.00869 -22.9942,0 -39.8762,-12.22484 -44.5332,-31.72632 h 124.8677 m -126.032,-34.05484 c 6.1124,-20.66574 21.8301,-32.01738 44.8243,-32.01738 23.8675,0 39.5852,11.35164 44.5333,32.01738 h -89.3576" />
      <path
         id="path2889"
         style="line-height:100%;font-family:'URW Gothic L';-inkscape-font-specification:'URW Gothic L Semi-Bold';fill:#4d5ea5"
         d="m 1705.1451,530.36051 c 1.7464,15.71761 4.366,23.86751 10.7695,32.59951 10.4784,13.97121 28.8157,22.41217 48.3171,22.41217 32.3084,0 57.6313,-24.1586 57.6313,-55.01168 0,-13.9712 -5.2392,-25.61391 -15.1355,-33.47271 -6.1124,-5.2392 -15.7176,-9.31415 -29.6888,-13.68015 -15.7176,-4.94814 -15.7176,-4.94815 -19.5015,-6.69455 -5.2392,-2.32853 -7.8588,-6.11241 -7.8588,-10.76948 0,-7.8588 6.4035,-13.68015 14.8444,-13.68015 8.1499,0 13.3891,4.36601 15.1355,12.80695 h 37.8387 c -0.5821,-13.68014 -3.7839,-21.83004 -11.6427,-30.56204 -10.1873,-11.35161 -25.3228,-17.7551 -41.3315,-17.7551 -29.9799,0 -53.5563,21.539 -53.5563,49.19034 0,23.57641 12.8069,36.96553 44.8243,47.735 14.8444,4.94814 16.0087,5.53028 20.0836,8.14988 4.6571,2.91067 7.2767,7.27668 7.2767,12.51588 0,9.02307 -7.5678,15.71763 -17.464,15.71763 -11.3516,0 -17.7551,-5.82136 -21.539,-19.5015 h -39.003" />
      <path
         id="path2891"
         style="line-height:100%;font-family:'URW Gothic L';-inkscape-font-specification:'URW Gothic L Semi-Bold';fill:#4d5ea5"
         d="m 2003.0386,518.13569 c 1.1643,-5.53026 1.4554,-9.02308 1.4554,-14.84442 0,-50.06348 -35.2192,-86.73799 -83.2452,-86.73799 -47.4439,0 -84.9916,37.54771 -84.9916,84.99159 0,47.15282 38.1298,83.82732 87.3201,83.82732 26.4871,0 47.1529,-9.60523 64.0348,-29.10671 6.1124,-7.56773 10.1873,-14.26229 12.8069,-22.41216 h -42.2047 c -9.8963,11.64267 -19.5015,16.00869 -35.5102,16.00869 -22.9943,0 -39.8762,-12.22484 -44.5333,-31.72632 h 124.8678 m -126.032,-34.05484 c 6.1124,-20.66574 21.83,-32.01738 44.8243,-32.01738 23.8675,0 39.5851,11.35164 44.5333,32.01738 h -89.3576" />
      <path
         id="path2893"
         style="line-height:100%;font-family:'URW Gothic L';-inkscape-font-specification:'URW Gothic L Semi-Bold';fill:#4d5ea5"
         d="m 2192.9962,420.33716 h -35.5101 v 21.53896 c -13.3891,-17.75507 -29.3978,-25.32284 -52.6832,-25.32284 -47.7349,0 -82.0809,35.8013 -82.0809,84.99159 0,48.60815 34.0549,83.82732 81.2077,83.82732 22.7032,0 38.1298,-7.27669 53.5564,-24.7407 v 20.95683 h 35.5101 V 420.33716 m -84.1183,31.72631 c 27.6513,0 47.4439,20.66579 47.4439,50.06354 0,11.64267 -4.6571,25.03177 -11.6427,33.18164 -7.8588,9.31414 -20.3747,14.55336 -35.2191,14.55336 -28.2335,0 -47.735,-19.21046 -47.735,-47.44394 0,-29.39774 19.5015,-50.3546 47.1529,-50.3546" />
      <path
         id="path2895"
         style="line-height:100%;font-family:'URW Gothic L';-inkscape-font-specification:'URW Gothic L Semi-Bold';fill:#4d5ea5"
         d="m 2221.8574,581.58832 h 38.7119 v -89.64866 c 0,-25.03175 11.3517,-37.54766 34.637,-38.12979 v -37.25659 h -2.9107 c -16.5908,0 -24.7407,4.65709 -34.928,19.5015 v -15.71762 h -35.5102 v 161.25116" />
      <path
         id="path2897"
         style="line-height:100%;font-family:'URW Gothic L';-inkscape-font-specification:'URW Gothic L Semi-Bold';fill:#4d5ea5"
         d="m 2430.6434,528.61411 c -9.6052,14.84441 -20.6657,21.2479 -36.6744,21.2479 -26.7782,0 -46.8618,-20.95686 -46.8618,-49.19034 0,-28.23348 19.2104,-48.6082 45.9886,-48.6082 17.464,0 29.6888,7.27669 37.5476,22.1211 h 43.6601 c -5.5303,-16.29974 -10.7695,-24.74072 -21.83,-34.92805 -15.7176,-14.55334 -36.9656,-22.70324 -59.3777,-22.70324 -47.735,0 -84.9916,36.96557 -84.9916,84.40946 0,46.86175 38.4209,84.40945 86.1559,84.40945 37.5476,0 66.6543,-20.6658 80.0434,-56.75808 h -43.6601" />
      <path
         id="path2899"
         style="line-height:100%;font-family:'URW Gothic L';-inkscape-font-specification:'URW Gothic L Semi-Bold';fill:#4d5ea5"
         d="m 2501.5547,581.58832 h 38.7119 v -81.78985 c 0,-16.00867 1.4553,-25.03178 5.5303,-32.30845 5.5302,-9.89627 15.7176,-15.42655 28.5245,-15.42655 22.7032,0 31.4353,13.38912 31.4353,47.15286 v 82.37199 h 38.7119 v -91.104 c 0,-23.57641 -2.9107,-36.67446 -10.7695,-48.6082 -10.7695,-16.59081 -29.3978,-25.6139 -52.3921,-25.6139 -16.5908,0 -29.3977,4.65708 -41.0404,15.13549 v -64.90796 h -38.7119 v 215.09857" />
      <path
         id="path2901"
         style="line-height:100%;font-family:'URW Gothic L';-inkscape-font-specification:'URW Gothic L Semi-Bold';fill:#4d5ea5"
         d="m 2761.4503,581.58832 h 39.8762 V 366.48975 h -39.8762 v 215.09857" />
      <path
         id="path2903"
         style="line-height:100%;font-family:'URW Gothic L';-inkscape-font-specification:'URW Gothic L Semi-Bold';fill:#4d5ea5"
         d="m 2838.6695,581.58832 h 38.7119 v -75.96851 c 0,-21.53894 1.4554,-30.85312 6.4035,-38.71192 6.1124,-9.6052 16.2998,-14.84442 28.5246,-14.84442 9.8963,0 18.0462,3.49281 23.2854,10.18735 5.2392,6.9856 7.5677,18.91938 7.5677,40.45832 v 78.87918 h 38.7119 V 495.1414 c 0,-28.81562 -2.9107,-42.78688 -11.6427,-55.30275 -10.4784,-15.13547 -27.9424,-23.28537 -50.3546,-23.28537 -18.3372,0 -31.1442,5.53029 -45.4064,19.21043 v -15.42655 h -35.8013 v 161.25116" />
      <path
         id="path2905"
         style="line-height:100%;font-family:'URW Gothic L';-inkscape-font-specification:'URW Gothic L Semi-Bold';fill:#4d5ea5"
         d="m 3003.0087,530.36051 c 1.7464,15.71761 4.366,23.86751 10.7694,32.59951 10.4785,13.97121 28.8157,22.41217 48.3172,22.41217 32.3084,0 57.6313,-24.1586 57.6313,-55.01168 0,-13.9712 -5.2393,-25.61391 -15.1355,-33.47271 -6.1124,-5.2392 -15.7177,-9.31415 -29.6889,-13.68015 -15.7176,-4.94814 -15.7176,-4.94815 -19.5015,-6.69455 -5.2392,-2.32853 -7.8588,-6.11241 -7.8588,-10.76948 0,-7.8588 6.4035,-13.68015 14.8445,-13.68015 8.1498,0 13.389,4.36601 15.1354,12.80695 h 37.8388 c -0.5822,-13.68014 -3.7839,-21.83004 -11.6427,-30.56204 -10.1874,-11.35161 -25.3229,-17.7551 -41.3315,-17.7551 -29.9799,0 -53.5564,21.539 -53.5564,49.19034 0,23.57641 12.807,36.96553 44.8243,47.735 14.8444,4.94814 16.0087,5.53028 20.0837,8.14988 4.657,2.91067 7.2766,7.27668 7.2766,12.51588 0,9.02307 -7.5677,15.71763 -17.464,15.71763 -11.3516,0 -17.7551,-5.82136 -21.5389,-19.5015 h -39.003" />
      <path
         id="path2907"
         style="line-height:100%;font-family:'URW Gothic L';-inkscape-font-specification:'URW Gothic L Semi-Bold';fill:#4d5ea5"
         d="m 3146.9276,581.58832 h 38.712 V 455.55627 h 23.2853 v -35.21911 h -23.2853 v -53.84741 h -38.712 v 53.84741 h -18.9193 v 35.21911 h 18.9193 v 126.03205" />
      <path
         id="path2909"
         style="line-height:100%;font-family:'URW Gothic L';-inkscape-font-specification:'URW Gothic L Semi-Bold';fill:#4d5ea5"
         d="m 3228.6539,581.58832 h 38.7119 V 420.33716 h -38.7119 v 161.25116 m 0,-178.71519 h 38.7119 v -36.38338 h -38.7119 v 36.38338" />
      <path
         id="path2911"
         style="line-height:100%;font-family:'URW Gothic L';-inkscape-font-specification:'URW Gothic L Semi-Bold';fill:#4d5ea5"
         d="m 3304.3996,581.58832 h 38.7119 V 455.55627 h 23.2853 v -35.21911 h -23.2853 v -53.84741 h -38.7119 v 53.84741 h -18.9194 v 35.21911 h 18.9194 v 126.03205" />
      <path
         id="path2913"
         style="line-height:100%;font-family:'URW Gothic L';-inkscape-font-specification:'URW Gothic L Semi-Bold';fill:#4d5ea5"
         d="m 3529.6218,420.33716 h -38.7119 v 75.9685 c 0,21.24788 -1.4554,31.72632 -6.1125,38.71193 -5.5302,9.31413 -16.2997,14.84442 -29.3977,14.84442 -9.8963,0 -17.4641,-3.20175 -22.7033,-10.18735 -5.5302,-6.9856 -7.8588,-18.91938 -7.8588,-40.45833 v -78.87917 h -38.7119 v 86.44692 c 0,27.36028 3.2018,41.33154 12.2248,54.72061 10.7695,15.42654 28.2335,23.8675 49.1904,23.8675 19.5014,0 31.7263,-4.94815 46.2796,-19.21043 v 15.42656 h 35.8013 V 420.33716" />
      <path
         id="path2915"
         style="line-height:100%;font-family:'URW Gothic L';-inkscape-font-specification:'URW Gothic L Semi-Bold';fill:#4d5ea5"
         d="m 3566.4735,581.58832 h 38.712 V 455.55627 h 23.2853 v -35.21911 h -23.2853 v -53.84741 h -38.712 v 53.84741 h -18.9193 v 35.21911 h 18.9193 v 126.03205" />
      <path
         id="path2917"
         style="line-height:100%;font-family:'URW Gothic L';-inkscape-font-specification:'URW Gothic L Semi-Bold';fill:#4d5ea5"
         d="m 3807.9956,518.13569 c 1.1643,-5.53026 1.4554,-9.02308 1.4554,-14.84442 0,-50.06348 -35.2192,-86.73799 -83.2452,-86.73799 -47.4439,0 -84.9916,37.54771 -84.9916,84.99159 0,47.15282 38.1298,83.82732 87.3201,83.82732 26.4871,0 47.1529,-9.60523 64.0348,-29.10671 6.1124,-7.56773 10.1873,-14.26229 12.8069,-22.41216 h -42.2047 c -9.8963,11.64267 -19.5015,16.00869 -35.5102,16.00869 -22.9943,0 -39.8762,-12.22484 -44.5333,-31.72632 h 124.8678 m -126.032,-34.05484 c 6.1124,-20.66574 21.83,-32.01738 44.8243,-32.01738 23.8675,0 39.5851,11.35164 44.5333,32.01738 h -89.3576" />
      <path
         id="path2919"
         style="line-height:100%;font-family:'URW Gothic L';-inkscape-font-specification:'URW Gothic L Semi-Bold';fill:#4d5ea5"
         d="m 1361.1902,872.6554 h 38.712 V 746.62335 h 21.83 v -32.30844 h -21.83 c 0.291,-14.55334 5.2392,-19.5015 20.3747,-19.5015 h 3.7838 v -36.67445 c -4.657,-0.58213 -6.9856,-0.58213 -9.6052,-0.58213 -16.5908,0 -30.562,6.11242 -40.4583,18.04615 -7.8588,9.31414 -10.7695,18.62832 -12.807,38.71193 h -13.9712 v 32.30844 h 13.9712 V 872.6554" />
      <path
         id="path2921"
         style="line-height:100%;font-family:'URW Gothic L';-inkscape-font-specification:'URW Gothic L Semi-Bold';fill:#4d5ea5"
         d="m 1519.6171,707.62036 c -46.8617,0 -85.2826,38.12984 -85.2826,84.40946 0,46.57068 38.4209,84.40945 85.5737,84.40945 46.8618,0 85.8648,-37.83877 85.8648,-83.24519 0,-48.02602 -37.5477,-85.57372 -86.1559,-85.57372 m 0.2911,35.51019 c 25.905,0 46.8618,22.12112 46.8618,48.89927 0,27.06921 -20.9568,48.89926 -46.5707,48.89926 -26.196,0 -46.8618,-21.83005 -46.8618,-49.4814 0,-26.48708 21.2479,-48.31713 46.5707,-48.31713" />
      <path
         id="path2923"
         style="line-height:100%;font-family:'URW Gothic L';-inkscape-font-specification:'URW Gothic L Semi-Bold';fill:#4d5ea5"
         d="m 1627.7849,872.6554 h 38.712 v -89.64866 c 0,-25.03175 11.3516,-37.54766 34.6369,-38.12979 v -37.25659 h -2.9106 c -16.5908,0 -24.7407,4.65709 -34.9281,19.5015 v -15.71763 h -35.5102 V 872.6554" />
      <path
         id="path2925"
         style="line-height:100%;font-family:'URW Gothic L';-inkscape-font-specification:'URW Gothic L Semi-Bold';fill:#4d5ea5"
         d="m 1788.6313,872.6554 h 43.9512 l 23.8675,-55.59382 h 76.5506 l 22.9943,55.59382 h 43.9511 L 1909.7152,657.55683 H 1878.28 l -89.6487,215.09857 m 82.372,-93.7236 22.9943,-65.19903 22.9943,65.19903 h -45.9886" />
      <path
         id="path2927"
         style="line-height:100%;font-family:'URW Gothic L';-inkscape-font-specification:'URW Gothic L Semi-Bold';fill:#4d5ea5"
         d="m 2017.7694,872.6554 h 38.7119 v -89.64866 c 0,-25.03175 11.3516,-37.54766 34.637,-38.12979 v -37.25659 h -2.9107 c -16.5908,0 -24.7407,4.65709 -34.928,19.5015 v -15.71763 h -35.5102 V 872.6554" />
      <path
         id="path2929"
         style="line-height:100%;font-family:'URW Gothic L';-inkscape-font-specification:'URW Gothic L Semi-Bold';fill:#4d5ea5"
         d="m 2116.8231,872.6554 h 38.712 V 746.62335 h 23.2853 v -35.21912 h -23.2853 v -53.8474 h -38.712 v 53.8474 h -18.9193 v 35.21912 h 18.9193 V 872.6554" />
      <path
         id="path2931"
         style="line-height:100%;font-family:'URW Gothic L';-inkscape-font-specification:'URW Gothic L Semi-Bold';fill:#4d5ea5"
         d="m 2198.5493,872.6554 h 38.7119 V 711.40423 h -38.7119 V 872.6554 m 0,-178.71519 h 38.7119 v -36.38338 h -38.7119 v 36.38338" />
      <path
         id="path2933"
         style="line-height:100%;font-family:'URW Gothic L';-inkscape-font-specification:'URW Gothic L Semi-Bold';fill:#4d5ea5"
         d="m 2269.6379,872.6554 h 38.7119 V 746.62335 h 21.83 v -32.30844 h -21.83 c 0.2911,-14.55334 5.2392,-19.5015 20.3747,-19.5015 h 3.7839 v -36.67445 c -4.6571,-0.58213 -6.9857,-0.58213 -9.6053,-0.58213 -16.5908,0 -30.562,6.11242 -40.4583,18.04615 -7.8588,9.31414 -10.7695,18.62832 -12.8069,38.71193 h -13.9712 v 32.30844 h 13.9712 V 872.6554" />
      <path
         id="path2935"
         style="line-height:100%;font-family:'URW Gothic L';-inkscape-font-specification:'URW Gothic L Semi-Bold';fill:#4d5ea5"
         d="m 2349.7677,872.6554 h 38.712 V 711.40423 h -38.712 V 872.6554 m 0,-178.71519 h 38.712 v -36.38338 h -38.712 v 36.38338" />
      <path
         id="path2937"
         style="line-height:100%;font-family:'URW Gothic L';-inkscape-font-specification:'URW Gothic L Semi-Bold';fill:#4d5ea5"
         d="m 2535.2456,819.68119 c -9.6052,14.8444 -20.6658,21.24789 -36.6744,21.24789 -26.7782,0 -46.8618,-20.95685 -46.8618,-49.19033 0,-28.23348 19.2104,-48.6082 45.9886,-48.6082 17.464,0 29.6888,7.27669 37.5476,22.12109 h 43.6601 c -5.5303,-16.29974 -10.7695,-24.74071 -21.8301,-34.92805 -15.7176,-14.55333 -36.9655,-22.70323 -59.3776,-22.70323 -47.735,0 -84.9916,36.96557 -84.9916,84.40946 0,46.86175 38.4209,84.40945 86.1558,84.40945 37.5476,0 66.6544,-20.6658 80.0435,-56.75808 h -43.6601" />
      <path
         id="path2939"
         style="line-height:100%;font-family:'URW Gothic L';-inkscape-font-specification:'URW Gothic L Semi-Bold';fill:#4d5ea5"
         d="m 2606.1568,872.6554 h 38.712 V 711.40423 h -38.712 V 872.6554 m 0,-178.71519 h 38.712 v -36.38338 h -38.712 v 36.38338" />
      <path
         id="path2941"
         style="line-height:100%;font-family:'URW Gothic L';-inkscape-font-specification:'URW Gothic L Semi-Bold';fill:#4d5ea5"
         d="m 2839.3698,711.40423 h -35.5102 v 21.53897 c -13.3891,-17.75508 -29.3978,-25.32284 -52.6831,-25.32284 -47.735,0 -82.081,35.8013 -82.081,84.99159 0,48.60815 34.0549,83.82732 81.2078,83.82732 22.7032,0 38.1298,-7.2767 53.5563,-24.7407 v 20.95683 h 35.5102 V 711.40423 m -84.1184,31.72632 c 27.6513,0 47.4439,20.66579 47.4439,50.06353 0,11.64267 -4.6571,25.03178 -11.6427,33.18165 -7.8588,9.31414 -20.3747,14.55335 -35.2191,14.55335 -28.2335,0 -47.735,-19.21045 -47.735,-47.44393 0,-29.39775 19.5015,-50.3546 47.1529,-50.3546" />
      <path
         id="path2943"
         style="line-height:100%;font-family:'URW Gothic L';-inkscape-font-specification:'URW Gothic L Semi-Bold';fill:#4d5ea5"
         d="m 2868.2309,872.6554 h 38.7119 V 657.55683 h -38.7119 V 872.6554" />
      <path
         id="path2945"
         style="line-height:100%;font-family:'URW Gothic L';-inkscape-font-specification:'URW Gothic L Semi-Bold';fill:#4d5ea5"
         d="m 3023.5244,872.6554 h 39.8762 V 657.55683 h -39.8762 V 872.6554" />
      <path
         id="path2947"
         style="line-height:100%;font-family:'URW Gothic L';-inkscape-font-specification:'URW Gothic L Semi-Bold';fill:#4d5ea5"
         d="m 3100.7435,872.6554 h 38.7119 v -75.96851 c 0,-21.53894 1.4554,-30.85312 6.4035,-38.71192 6.1124,-9.60521 16.2998,-14.84442 28.5246,-14.84442 9.8962,0 18.0461,3.49281 23.2853,10.18734 5.2392,6.98561 7.5678,18.91939 7.5678,40.45833 v 78.87918 h 38.7119 v -86.44693 c 0,-28.81561 -2.9107,-42.78687 -11.6427,-55.30274 -10.4784,-15.13547 -27.9424,-23.28537 -50.3546,-23.28537 -18.3372,0 -31.1442,5.53029 -45.4064,19.21043 v -15.42656 h -35.8013 V 872.6554" />
      <path
         id="path2949"
         style="line-height:100%;font-family:'URW Gothic L';-inkscape-font-specification:'URW Gothic L Semi-Bold';fill:#4d5ea5"
         d="m 3281.0915,872.6554 h 38.7119 V 746.62335 h 23.2853 v -35.21912 h -23.2853 v -53.8474 h -38.7119 v 53.8474 h -18.9194 v 35.21912 h 18.9194 V 872.6554" />
      <path
         id="path2951"
         style="line-height:100%;font-family:'URW Gothic L';-inkscape-font-specification:'URW Gothic L Semi-Bold';fill:#4d5ea5"
         d="m 3522.6134,809.20277 c 1.1643,-5.53027 1.4554,-9.02308 1.4554,-14.84442 0,-50.06349 -35.2192,-86.73799 -83.2452,-86.73799 -47.4439,0 -84.9916,37.5477 -84.9916,84.99159 0,47.15282 38.1298,83.82732 87.3201,83.82732 26.4871,0 47.1529,-9.60524 64.0348,-29.10671 6.1124,-7.56774 10.1873,-14.2623 12.8069,-22.41217 h -42.2047 c -9.8963,11.64268 -19.5015,16.00869 -35.5102,16.00869 -22.9943,0 -39.8762,-12.22483 -44.5333,-31.72631 h 124.8678 m -126.032,-34.05485 c 6.1124,-20.66574 21.83,-32.01737 44.8243,-32.01737 23.8675,0 39.5851,11.35163 44.5333,32.01737 h -89.3576" />
      <path
         id="path2953"
         style="line-height:100%;font-family:'URW Gothic L';-inkscape-font-specification:'URW Gothic L Semi-Bold';fill:#4d5ea5"
         d="m 3549.2823,872.6554 h 38.7119 V 657.55683 h -38.7119 V 872.6554" />
      <path
         id="path2955"
         style="line-height:100%;font-family:'URW Gothic L';-inkscape-font-specification:'URW Gothic L Semi-Bold';fill:#4d5ea5"
         d="m 3619.2066,872.6554 h 38.712 V 657.55683 h -38.712 V 872.6554" />
      <path
         id="path2957"
         style="line-height:100%;font-family:'URW Gothic L';-inkscape-font-specification:'URW Gothic L Semi-Bold';fill:#4d5ea5"
         d="m 3689.131,872.6554 h 38.7119 V 711.40423 H 3689.131 V 872.6554 m 0,-178.71519 h 38.7119 v -36.38338 h -38.7119 v 36.38338" />
      <path
         id="path2959"
         style="line-height:100%;font-family:'URW Gothic L';-inkscape-font-specification:'URW Gothic L Semi-Bold';fill:#4d5ea5"
         d="m 3884.2141,711.40423 v 20.3747 c -11.9337,-16.29974 -29.3978,-24.15857 -52.6831,-24.15857 -45.6975,0 -79.4613,35.51023 -79.4613,83.24519 0,49.77242 33.1817,85.57372 79.1702,85.57372 22.7032,0 37.8387,-7.2767 52.9742,-25.03177 -1.4553,34.63695 -16.2998,51.51887 -45.1154,51.51887 -18.0461,0 -29.1067,-4.65708 -40.4583,-17.17296 h -43.9511 c 13.098,32.30842 43.369,51.22781 82.9541,51.22781 29.1067,0 52.101,-10.18737 67.2365,-29.39778 11.3516,-14.8444 16.2997,-34.63701 16.2997,-65.49009 V 711.40423 h -36.9655 m -48.3171,31.72632 c 27.6513,0 46.5707,20.08365 46.5707,49.4814 0,29.10668 -18.3372,48.31713 -45.9886,48.31713 -27.6513,0 -45.4065,-18.91939 -45.4065,-48.31713 0,-29.68881 17.7552,-49.4814 44.8244,-49.4814" />
      <path
         id="path2961"
         style="line-height:100%;font-family:'URW Gothic L';-inkscape-font-specification:'URW Gothic L Semi-Bold';fill:#4d5ea5"
         d="m 4111.001,809.20277 c 1.1643,-5.53027 1.4553,-9.02308 1.4553,-14.84442 0,-50.06349 -35.2191,-86.73799 -83.2452,-86.73799 -47.4438,0 -84.9915,37.5477 -84.9915,84.99159 0,47.15282 38.1298,83.82732 87.3201,83.82732 26.4871,0 47.1529,-9.60524 64.0347,-29.10671 6.1124,-7.56774 10.1874,-14.2623 12.807,-22.41217 h -42.2047 c -9.8963,11.64268 -19.5015,16.00869 -35.5102,16.00869 -22.9943,0 -39.8762,-12.22483 -44.5333,-31.72631 h 124.8678 m -126.032,-34.05485 c 6.1124,-20.66574 21.83,-32.01737 44.8243,-32.01737 23.8675,0 39.5851,11.35163 44.5332,32.01737 h -89.3575" />
      <path
         id="path2963"
         style="line-height:100%;font-family:'URW Gothic L';-inkscape-font-specification:'URW Gothic L Semi-Bold';fill:#4d5ea5"
         d="m 4137.67,872.6554 h 38.7119 v -75.96851 c 0,-21.53894 1.4554,-30.85312 6.4035,-38.71192 6.1124,-9.60521 16.2998,-14.84442 28.5246,-14.84442 9.8963,0 18.0461,3.49281 23.2854,10.18734 5.2392,6.98561 7.5677,18.91939 7.5677,40.45833 v 78.87918 h 38.7119 v -86.44693 c 0,-28.81561 -2.9107,-42.78687 -11.6427,-55.30274 -10.4784,-15.13547 -27.9424,-23.28537 -50.3546,-23.28537 -18.3372,0 -31.1442,5.53029 -45.4064,19.21043 V 711.40423 H 4137.67 V 872.6554" />
      <path
         id="path2965"
         style="line-height:100%;font-family:'URW Gothic L';-inkscape-font-specification:'URW Gothic L Semi-Bold';fill:#4d5ea5"
         d="m 4427.7503,819.68119 c -9.6052,14.8444 -20.6658,21.24789 -36.6745,21.24789 -26.7781,0 -46.8618,-20.95685 -46.8618,-49.19033 0,-28.23348 19.2105,-48.6082 45.9886,-48.6082 17.464,0 29.6889,7.27669 37.5477,22.12109 h 43.66 c -5.5303,-16.29974 -10.7695,-24.74071 -21.83,-34.92805 -15.7176,-14.55333 -36.9656,-22.70323 -59.3777,-22.70323 -47.735,0 -84.9916,36.96557 -84.9916,84.40946 0,46.86175 38.4209,84.40945 86.1559,84.40945 37.5476,0 66.6543,-20.6658 80.0434,-56.75808 h -43.66" />
      <path
         id="path2967"
         style="line-height:100%;font-family:'URW Gothic L';-inkscape-font-specification:'URW Gothic L Semi-Bold';fill:#4d5ea5"
         d="m 4658.4573,809.20277 c 1.1643,-5.53027 1.4553,-9.02308 1.4553,-14.84442 0,-50.06349 -35.2191,-86.73799 -83.2452,-86.73799 -47.4438,0 -84.9915,37.5477 -84.9915,84.99159 0,47.15282 38.1298,83.82732 87.3201,83.82732 26.4871,0 47.1529,-9.60524 64.0347,-29.10671 6.1124,-7.56774 10.1874,-14.2623 12.807,-22.41217 h -42.2047 c -9.8963,11.64268 -19.5015,16.00869 -35.5102,16.00869 -22.9943,0 -39.8762,-12.22483 -44.5333,-31.72631 h 124.8678 m -126.032,-34.05485 c 6.1124,-20.66574 21.83,-32.01737 44.8243,-32.01737 23.8675,0 39.5851,11.35163 44.5332,32.01737 h -89.3575" />
    </g>
  </g>
</svg>
